<svg width="24" height="24" viewBox="0 0 24 24" fill="none" xmlns="http://www.w3.org/2000/svg">
<path d="M20 10C20 9.73481 19.8946 9.48046 19.7071 9.29292C19.5196 9.10539 19.2652 9.00003 19 9.00003C18.7348 9.00003 18.4804 9.10539 18.2929 9.29292C18.1054 9.48046 18 9.73481 18 10H20ZM6 10C6 9.73481 5.89464 9.48046 5.70711 9.29292C5.51957 9.10539 5.26522 9.00003 5 9.00003C4.73478 9.00003 4.48043 9.10539 4.29289 9.29292C4.10536 9.48046 4 9.73481 4 10H6ZM20.293 12.707C20.4816 12.8892 20.7342 12.99 20.9964 12.9877C21.2586 12.9854 21.5094 12.8803 21.6948 12.6948C21.8802 12.5094 21.9854 12.2586 21.9877 11.9964C21.99 11.7342 21.8892 11.4816 21.707 11.293L20.293 12.707ZM12 3.00003L12.707 2.29303C12.5195 2.10556 12.2652 2.00024 12 2.00024C11.7348 2.00024 11.4805 2.10556 11.293 2.29303L12 3.00003ZM2.293 11.293C2.19749 11.3853 2.12131 11.4956 2.0689 11.6176C2.01649 11.7396 1.9889 11.8709 1.98775 12.0036C1.9866 12.1364 2.0119 12.2681 2.06218 12.391C2.11246 12.5139 2.18671 12.6255 2.28061 12.7194C2.3745 12.8133 2.48615 12.8876 2.60905 12.9379C2.73194 12.9881 2.86362 13.0134 2.9964 13.0123C3.12918 13.0111 3.2604 12.9835 3.38241 12.9311C3.50441 12.8787 3.61475 12.8025 3.707 12.707L2.293 11.293ZM7 22H17V20H7V22ZM20 19V10H18V19H20ZM6 19V10H4V19H6ZM21.707 11.293L12.707 2.29303L11.293 3.70703L20.293 12.707L21.707 11.293ZM11.293 2.29303L2.293 11.293L3.707 12.707L12.707 3.70703L11.293 2.29303ZM17 22C17.7957 22 18.5587 21.684 19.1213 21.1214C19.6839 20.5587 20 19.7957 20 19H18C18 19.2652 17.8946 19.5196 17.7071 19.7071C17.5196 19.8947 17.2652 20 17 20V22ZM7 20C6.73478 20 6.48043 19.8947 6.29289 19.7071C6.10536 19.5196 6 19.2652 6 19H4C4 19.7957 4.31607 20.5587 4.87868 21.1214C5.44129 21.684 6.20435 22 7 22V20Z" fill="black"/>
</svg>
